<?xml version="1.0" standalone="no"?>
<!DOCTYPE svg PUBLIC "-//W3C//DTD SVG 20010904//EN"
 "http://www.w3.org/TR/2001/REC-SVG-20010904/DTD/svg10.dtd">
<svg version="1.0" xmlns="http://www.w3.org/2000/svg"
 width="1215.000000pt" height="1215.000000pt" viewBox="0 0 1215.000000 1215.000000"
 preserveAspectRatio="xMidYMid meet">
<metadata>
Created by potrace 1.14, written by Peter Selinger 2001-2017
</metadata>
<g transform="translate(0.000000,1215.000000) scale(0.100000,-0.100000)"
fill="#000000" stroke="none">
<path d="M5848 12085 c-2 -1 -59 -6 -128 -9 -69 -4 -143 -9 -165 -10 -88 -7
-181 -17 -205 -21 -14 -2 -47 -7 -75 -10 -112 -15 -238 -35 -315 -50 -14 -3
-37 -7 -52 -10 -132 -24 -344 -77 -547 -135 -97 -27 -387 -126 -428 -145 -17
-8 -34 -15 -38 -15 -34 0 -555 -243 -715 -333 -19 -11 -55 -31 -80 -45 -25
-14 -61 -36 -80 -49 -19 -12 -38 -23 -43 -23 -4 0 -20 -8 -35 -19 -15 -10 -99
-66 -187 -124 -88 -58 -169 -112 -180 -121 -11 -9 -49 -38 -85 -63 -36 -26
-67 -50 -70 -53 -3 -3 -23 -19 -45 -35 -50 -37 -274 -224 -340 -285 -84 -76
-366 -360 -442 -445 -88 -99 -222 -261 -277 -335 -22 -30 -43 -57 -47 -60 -27
-24 -329 -473 -329 -490 0 -6 -4 -10 -10 -10 -5 0 -10 -4 -10 -9 0 -5 -20 -43
-44 -84 -231 -390 -446 -891 -570 -1327 -20 -69 -41 -141 -46 -160 -23 -78
-73 -303 -96 -430 -29 -162 -33 -185 -49 -305 -2 -22 -7 -58 -10 -80 -28 -215
-40 -435 -39 -730 0 -222 8 -446 18 -505 3 -14 7 -59 10 -100 4 -41 9 -93 11
-115 3 -22 7 -53 9 -70 2 -16 7 -46 10 -65 3 -19 8 -51 11 -70 2 -19 7 -46 9
-60 3 -14 7 -41 10 -61 3 -20 8 -42 10 -50 3 -8 7 -31 10 -51 3 -21 11 -59 17
-85 6 -27 13 -59 15 -73 24 -123 116 -450 171 -605 14 -38 26 -77 28 -85 4
-23 98 -264 140 -361 58 -133 193 -412 242 -499 11 -19 35 -62 53 -95 18 -33
59 -102 91 -154 33 -51 59 -95 59 -97 0 -2 16 -27 35 -54 19 -27 35 -52 35
-55 0 -3 5 -11 11 -18 5 -7 53 -73 106 -147 52 -74 99 -136 104 -138 5 -2 9
-10 9 -17 0 -7 3 -15 7 -17 5 -1 51 -57 104 -123 101 -126 104 -129 202 -240
84 -94 343 -353 447 -447 267 -239 574 -470 876 -655 86 -53 159 -95 214 -124
36 -19 67 -37 70 -40 3 -4 23 -15 45 -26 22 -11 95 -47 161 -81 247 -124 596
-263 894 -356 105 -32 320 -90 380 -102 13 -3 60 -14 105 -24 75 -17 174 -37
220 -44 18 -3 62 -10 132 -21 15 -3 46 -7 68 -10 22 -3 69 -10 105 -15 36 -5
101 -12 145 -16 44 -3 88 -8 98 -9 123 -24 880 -24 1028 0 13 2 60 6 104 10
44 3 87 8 95 10 8 2 42 7 75 11 95 10 150 19 210 30 11 2 34 6 50 9 27 5 58
11 160 30 17 3 44 8 60 11 46 9 410 102 437 113 20 8 93 30 123 37 40 9 338
118 410 149 17 7 82 34 145 61 217 91 527 252 755 392 188 115 493 330 629
442 343 283 644 582 881 876 17 20 35 42 40 48 14 14 145 186 165 216 8 12 29
41 46 64 42 56 187 274 208 311 24 44 40 69 48 75 4 3 12 17 18 30 6 14 31 59
55 100 108 183 275 530 370 775 118 301 249 746 291 985 3 14 11 59 19 100 8
41 16 89 19 105 2 17 9 59 15 95 5 36 12 85 15 110 3 25 8 55 10 67 2 11 7 58
11 103 4 45 8 90 10 99 9 46 19 320 19 516 1 241 -12 503 -29 625 -2 19 -7 62
-10 95 -3 33 -7 71 -10 85 -2 14 -9 61 -15 105 -6 44 -15 100 -20 125 -10 46
-16 80 -26 140 -3 19 -24 112 -45 205 -43 183 -43 183 -52 205 -3 8 -13 44
-22 80 -48 180 -167 519 -244 695 -10 22 -29 65 -42 95 -76 175 -247 499 -372
705 -30 49 -213 324 -237 355 -15 19 -46 62 -70 95 -43 58 -243 309 -265 331
-5 6 -39 44 -75 84 -89 100 -336 349 -440 442 -47 42 -105 94 -130 117 -25 22
-53 43 -62 46 -10 4 -18 10 -18 14 0 8 -206 171 -300 237 -30 21 -57 41 -60
44 -21 23 -390 256 -530 334 -99 56 -385 199 -480 240 -47 21 -98 44 -115 51
-134 60 -414 160 -610 220 -107 33 -432 115 -510 129 -152 28 -371 65 -420 70
-33 4 -71 9 -85 11 -14 2 -51 7 -82 10 -32 3 -82 7 -110 10 -137 13 -223 17
-475 20 -150 1 -273 1 -275 0z"/>
</g>
</svg>
